<svg width="23" height="23" viewBox="0 0 23 23" fill="none" xmlns="http://www.w3.org/2000/svg">
<g clip-path="url(#clip0_2770_104765)">
<path d="M21.5833 20.7916H9.66667C9.16067 20.7916 8.75 20.381 8.75 19.875C8.75 19.369 9.16067 18.9583 9.66667 18.9583H21.5833C22.0893 18.9583 22.5 19.369 22.5 19.875C22.5 20.381 22.0893 20.7916 21.5833 20.7916Z" fill="#000"/>
<path d="M19.0791 4.4255L17.7829 3.12933C17.0899 2.43633 15.8827 2.43725 15.1906 3.12933L13.2949 5.025L17.1834 8.9135L19.0791 7.01783C19.4256 6.67225 19.6163 6.21208 19.6163 5.72166C19.6163 5.23216 19.4256 4.772 19.0791 4.4255Z" fill="#000"/>
<path d="M11.9975 6.32208L2.55037 15.7692C2.48987 15.8288 2.4477 15.9049 2.42845 15.9883L1.42928 20.2279C1.39262 20.3819 1.43937 20.5451 1.5512 20.6569C1.63737 20.744 1.7547 20.7917 1.87478 20.7917C1.90962 20.7917 1.94537 20.788 1.9802 20.7797L6.21978 19.7806C6.30228 19.7613 6.37837 19.7192 6.43887 19.6587L15.886 10.2115L11.9975 6.32208Z" fill="#000"/>
</g>
<defs>
<clipPath id="clip0_2770_104765">
<rect width="22" height="22" fill="white" transform="translate(0.5 0.625)"/>
</clipPath>
</defs>
</svg>
