<svg width="21" height="20" viewBox="0 0 21 20" fill="none" xmlns="http://www.w3.org/2000/svg">
<path fill-rule="evenodd" clip-rule="evenodd" d="M19.4714 8.17902L11.905 1.69618L11.0218 0.938528C10.6234 0.597295 10.0296 0.604235 9.63817 0.957613L1.2195 8.55207C0.509 9.19058 0.971584 10.3618 1.93175 10.3502L2.66908 10.3432V17.412C2.66908 18.427 3.49917 19.25 4.52292 19.25H7.15783C7.47108 19.25 7.72717 18.9973 7.72717 18.6844V14.9615C7.72717 14.4699 8.12908 14.0702 8.62433 14.0702H12.255C12.7508 14.0702 13.1539 14.4699 13.1539 14.9615V18.6844C13.1539 18.9973 13.4088 19.25 13.7244 19.25H16.3862C17.4099 19.25 18.2418 18.427 18.2418 17.412V10.1732L19.0007 10.1663C19.9597 10.1541 20.3966 8.97253 19.6709 8.34906L19.4714 8.17902Z" fill="#000"/>
</svg>
