<svg width="17" height="19" viewBox="0 0 17 19" fill="none" xmlns="http://www.w3.org/2000/svg">
<path fill-rule="evenodd" clip-rule="evenodd" d="M15.0631 8.4424H14.2169V2.50572C14.2164 2.41011 14.2593 2.31737 14.3355 2.24867C14.4139 2.17825 14.5255 2.13761 14.6406 2.13761C14.7551 2.13761 14.8661 2.17883 14.9451 2.25039C15.0219 2.31851 15.0642 2.41183 15.0631 2.50801V8.4424ZM10.3441 6.86119H3.70324C3.34028 6.86119 3.14564 6.60014 3.14564 6.35511C3.14564 6.10952 3.34028 5.84846 3.70324 5.84846H10.3441C10.707 5.84846 10.9017 6.10952 10.9017 6.35511C10.9017 6.60014 10.707 6.86119 10.3441 6.86119ZM10.3441 10.1891H3.70324C3.34028 10.1891 3.14564 9.928 3.14564 9.6824C3.14564 9.43681 3.34028 9.17633 3.70324 9.17633H10.3441C10.707 9.17633 10.9017 9.43681 10.9017 9.6824C10.9017 9.928 10.707 10.1891 10.3441 10.1891ZM10.3441 13.5169H3.70324C3.34028 13.5169 3.14564 13.2553 3.14564 13.0103C3.14564 12.7647 3.34028 12.5042 3.70324 12.5042H10.3441C10.707 12.5042 10.9017 12.7647 10.9017 13.0103C10.9017 13.2553 10.707 13.5169 10.3441 13.5169ZM14.6349 0.6875H6.24393H4.39423H1.59992C0.854545 0.6875 0.25 1.21934 0.25 1.87541V6.17936V8.08975V18.4071C0.25 18.726 0.535098 18.975 0.899199 18.975C1.10358 18.975 1.29135 18.8914 1.41501 18.7449L2.14493 17.877L2.88286 18.754C3.00824 18.8903 3.19487 18.9687 3.39295 18.9687C3.59217 18.9687 3.77823 18.8903 3.91277 18.7449L4.64269 17.877L5.38005 18.754C5.506 18.8903 5.69205 18.9687 5.89128 18.9687C6.08993 18.9687 6.27599 18.8903 6.41052 18.7449L7.13987 17.877L7.86979 18.7449C7.9923 18.8914 8.1818 18.9744 8.38846 18.9744C8.5957 18.9744 8.7852 18.8914 8.90828 18.7449L9.63763 17.877L10.3756 18.754C10.5015 18.8903 10.6876 18.9687 10.8868 18.9687C11.0854 18.9687 11.2721 18.8903 11.406 18.7449L12.136 17.877L12.8647 18.7437C12.9861 18.8891 13.1807 18.975 13.384 18.975C13.7401 18.975 14.0303 18.7202 14.0303 18.4071V9.8948H15.8857C16.2418 9.8948 16.5309 9.64004 16.5309 9.32689V2.35515C16.5304 1.43688 15.6796 0.689217 14.6349 0.6875Z" fill="#000"/>
</svg>
